<svg xmlns="http://www.w3.org/2000/svg" height="24" viewBox="0 -960 960 960" width="24" fill="#0a84ff">
  <path d="M480-120q-151 0-255.5-104.5T120-480q0-151 104.5-255.5T480-840q150 0 255 104.5T840-480q0 151-105 255.5T480-120Zm0-80q120 0 200-80t80-200q0-120-80-200t-200-80q-120 0-200 80t-80 200q0 120 80 200t200 80Zm0-80q-83 0-141.5-58.5T280-480q0-83 58.5-141.5T480-680q83 0 141.5 58.5T680-480q0 83-58.5 141.5T480-280Zm0-200Zm-40 80h80l20-100q-30-10-60-10t-60 10l20 100Zm-60 100 20-80h160l20 80H380Z"/>
</svg> 