<svg xmlns="http://www.w3.org/2000/svg" viewBox="0 0 1000 1000" width="1000" height="1000">
  <!-- Shield Shape -->
  <path fill="#172B4D" d="M500,60c0,0-350,130-350,440c0,310,350,440,350,440s350-130,350-440C850,190,500,60,500,60z"/>
  
  <!-- Star Shape -->
  <path fill="#FFFFFF" d="M500,320c14.8,0,27.1,10.6,29.6,24.6l11.6,65.3l66.3,0c14.3,0,26.2,10.7,28.4,24.7c2.2,14-5,27.9-17.7,33.9
    l-54.2,25.9l25.4,57.8c6.1,13.8,1.5,30-11.1,37.9c-12.6,7.9-29.2,5.2-38.6-6.4l-39.6-49.2l-39.6,49.2
    c-9.4,11.6-26,14.3-38.6,6.4c-12.6-7.9-17.2-24.1-11.1-37.9l25.4-57.8l-54.2-25.9c-12.7-6.1-19.9-19.9-17.7-33.9
    c2.2-14,14.1-24.7,28.4-24.7l66.3,0l11.6-65.3C472.9,330.6,485.2,320,500,320z"/>
</svg> 