<svg xmlns="http://www.w3.org/2000/svg" viewBox="0 0 512 512">
  <path fill="#E50914" d="M341.5 8.4c-9.9-4.1-21.3-1.5-28.4 6.4-43.4 48.2-117.5 132.5-158.9 180.3V0c0-12.4-12.3-12.9-16.8-12.9-16.6 0-41.4 10.1-48.9 12.9v0.9c0 63.9 0 438 0 438 0 9.5 9 17 19.5 12.9 36.3-14.2 71-27.4 108-41.6v-118c43.6 47.5 118.3 130.1 155.9 174.3 4.3 5 11.9 6 17.2 2.2 5.7-4.1 9.1-8.2 9.1-17.5 0-11.2 0-446.3 0-446.3-0.1-1.8-0.7-3.6-1.9-5.2-8.2-10.1-21.7-9.2-35.3-3.1-40.4 18-80.9 36.1-120.9 54.2v113.4C235.8 149.9 320.8 53.8 341.5 29.4V8.4z"/>
</svg>